<svg xmlns="http://www.w3.org/2000/svg" fill="none" viewBox="0 0 73 88">
  <path fill="#FAFAFA" d="M71.64.027H0v2.49C0 7.989.38 35.81 8.306 52.17a111.91 111.91 0 0 0 15.456 23.802 59.96 59.96 0 0 0 11.76 11.025l.257.164.72.438.708-.438.272-.164a60.357 60.357 0 0 0 11.745-11.025A112.395 112.395 0 0 0 64.707 52.13C72.633 35.716 73.013 7.893 73 2.476V0l-1.36.027Z"/>
  <path fill="#005EB8" d="M71.655 2.48V1.367H1.36V2.48c0 5.795.395 33.154 8.159 49.25 9.599 19.887 22.258 31.588 26.717 34.335l.272.165.259-.165c4.473-2.747 17.132-14.517 26.718-34.335 7.777-16.096 8.185-43.455 8.171-49.25Z"/>
  <path fill="#FAFAFA" d="M40.236 5.659a5.21 5.21 0 0 0 2.365.206c.258-.206.095-.482.204-.688.109-.206.367.206.53.372.076.31.108.63.095.95a1.873 1.873 0 0 1-1.468.536h-1.618c-.108 0-.108.096-.108.317.788.151 2.093-.11 2.365 1.004.204.427.204 1.115.734 1.377l.68.165a1.066 1.066 0 0 1-.585.743.849.849 0 0 1-.625-.165c-.421-.372-.476-1.005-.938-1.376-.07.373-.037.759.095 1.115a5.246 5.246 0 0 0 1.536 2.243c.476.152.734-.592.993-.11.03.278-.024.558-.155.804a1.368 1.368 0 0 1-.58.572.929.929 0 0 1-.992 0 3.502 3.502 0 0 1-.968-1.011 3.55 3.55 0 0 1-.5-1.315c-.109 0-.204-.275-.367-.165-.476.482 0 1.115.258 1.597.272.151.272.468.163.84-.108.371-.53.908-.788 1.376a4.392 4.392 0 0 1-.57-1.005c0-.151 0-.427-.164-.523-.163-.096-.367.096-.367.261.035.416.156.82.355 1.185.199.365.472.684.8.935h.164c.258-.743.883-1.376 1.1-2.12.15 0 .368.207.463.372.476 1.487-.734 3.496.843 4.556.258 0 .734-.317.843.165a1.388 1.388 0 0 1-.476 1.005c-.204.11-.313.11-.367.206a2.03 2.03 0 0 1-1.944-.633c-.83-.84-.204-1.954-.462-3.014a.484.484 0 0 0-.272 0l-.096.151c.463 1.968-1.726 2.753-2.406 4.295-.163 0-.272-.262-.326-.468a1.98 1.98 0 0 1 .38-1.748c.096-.22 0-.276-.162-.372a2.081 2.081 0 0 1-.922 1c-.409.22-.88.295-1.335.211a1.807 1.807 0 0 1-.792-.31 1.837 1.837 0 0 1-.567-.64 2.187 2.187 0 0 1 .244-1.885c.313-.11.367.261.585.261a1.734 1.734 0 0 0 1.931-.333 1.796 1.796 0 0 0 .42-1.937 2.88 2.88 0 0 0-1.522-1.377c.734-.372 2.148.743 2.257-.743.07-.458.024-.927-.133-1.363a2.755 2.755 0 0 0-.764-1.129 11.188 11.188 0 0 0-3.657-1.637c-.367-.276-.843-.634-.843-1.115 0-.482 0-.482.163-.592a.43.43 0 0 1 .462.22 1.393 1.393 0 0 0 .367 1.211 2.042 2.042 0 0 0 1.835.372c.218-.096.367-.096.476-.372a.206.206 0 0 0 .059-.214.207.207 0 0 0-.167-.144c-.259 0-.422.358-.735.262 0-.11-.15-.22 0-.372a3.1 3.1 0 0 1 .53-.371c.572-.11 1.102.151 1.564 0v-.372c-1.563-.22-3.236 0-4.608-.963a.97.97 0 0 1-.15-.895c.258-.743 1.101-.853 1.835-.95 2.007.18 3.97.702 5.805 1.542Z"/>
  <path fill="#FAFAFA" d="M60.451 4.815a3.967 3.967 0 0 1-.335 2.065 3.91 3.91 0 0 1-1.337 1.596 7.095 7.095 0 0 1-3.82.427 1.35 1.35 0 0 0-.938.633c0 .317-.163.578 0 .743.164.165.204-.261.367-.371a.9.9 0 0 1 .721-.372c.367 0 .584.317.788.482a1.823 1.823 0 0 1-.312 1.376c0 .097 0 .207.217.317h.095c.259-.317.259-.688.422-.964a1.392 1.392 0 0 1 .476 1.376c-.11.152-.367.427-.272.744l.163.151c.367-.261.367-.743.68-1.004.163.481.421 1.004.163 1.486-.11.207-.367.262-.272.578a.484.484 0 0 0 .272 0l.462-.633a1.89 1.89 0 0 1 0 1.225c0 .317-.884.633-.258 1.005.204 0 .204-.372.475-.317.367.317.259.744.15 1.115-.099.42-.316.803-.625 1.101a.209.209 0 0 0 .02.282.2.2 0 0 0 .088.048c.259 0 .367-.371.626-.371.187.467.225.982.108 1.473a3.454 3.454 0 0 1-1.21 1.376c0 .206 0 .262.11.372l.733-.482a1.225 1.225 0 0 1-.217 1.376 3.74 3.74 0 0 1-1.25 1.377.22.22 0 0 0 .203.165c.42-.14.811-.354 1.156-.633.203.261-.11.523-.11.743a3.725 3.725 0 0 1-2.718 1.858c-.109 0-.109.207-.109.262.367.11.476.371.585.688a5.177 5.177 0 0 1-2.202.743c-.11 0-.11.152-.11.262.205.316.844 0 .844.426a5.172 5.172 0 0 1-2.203 0c-.108.11 0 .207 0 .372.572 0 .367.578.572.853 0 .207-.313.262-.368.262-.745.083-1.497.083-2.243 0v.371c0 .207.313 0 .422.262a5.627 5.627 0 0 1-2.474-.096s-.15-.11-.259 0c-.108.11-.108.206 0 .261.11.055.259.11.367.317a3.535 3.535 0 0 1-1.93 0c-.272-.165-.897 0-.843-.427a24.562 24.562 0 0 0-.163-2.863H38.77c-.095-.22-.367-.371-.313-.688a2.402 2.402 0 0 0 2.57.206c.108-.578.57-.096.938-.206.49.037.975-.116 1.359-.427.72-.482.353-1.596 1.36-1.858 1.468-1.17 3.656-.482 5.437-.95.72-.275 1.78-.853 1.93-1.706.367-1.9-1.1-3.276-.734-5.244.109-1.115.952-2.01.585-3.235a1 1 0 0 0-.843-.206c-1.727 1.376.625 4.294-1.944 4.927-.258 0-.367-.371-.408-.578-.109-.743.354-1.541 0-2.285-.15-1.968-2.352-3.234-1.617-5.505 1.21-3.551 5.233-2.23 7.599-3.923.222-.19.489-.318.774-.372a3.757 3.757 0 0 1-1.359 1.955c-.625.275-1.509.371-1.876 1.115 0 .11 0 .22.095.22s.367-.22.625-.262a13 13 0 0 0 2.148-1.376 12.153 12.153 0 0 0 4.976-2.065.35.35 0 0 1 .296.117.359.359 0 0 1 .084.31ZM18.242 6.674a19.705 19.705 0 0 0 2.719 2.12v-.317c0-.096 0-.275-.095-.371-.897-.743-2.366-1.377-2.366-2.753l.11-.11c2.093 2.546 6.388.482 7.544 4.129 1.047 2.436-1.998 3.813-1.631 6.194a1.975 1.975 0 0 1 0 1.748c-.15.22-.463.22-.517 0a1.7 1.7 0 0 1-.762-.574 1.732 1.732 0 0 1-.34-.899c-.312-1.06.26-2.023 0-3.028 0-.261-.42-.261-.733-.206-.313.055-.367.316-.53.468-.313 1.968.897 3.826.272 5.835a4.303 4.303 0 0 0-.367 3.607c1.93 2.34 5.233-.262 7.435 1.596.15.097.313.372.626.372a1.38 1.38 0 0 1 .42-.762c.219-.202.496-.325.79-.353.258.372-.367.743 0 1.005.407 0 .68-.372 1.046-.537.15-.096.367-.096.626-.207a2.572 2.572 0 0 1-1.022-.307 2.605 2.605 0 0 1-.814-.697c.367-.22.843-.22 1.21-.482-.734-.151-1.685-.633-1.78-1.376 0-.317.095-.372.095-.578.32.126.607.324.842.578.389.136.8.192 1.21.165.362.398.837.672 1.36.784.095 0 .204 0 .204-.151a2.313 2.313 0 0 0-.843-.427 2.517 2.517 0 0 1-.884-1.858 1.114 1.114 0 0 1 .626-.578c.475 0 .367.633.53.95.2.24.463.418.76.513.295.095.611.103.912.023a3.158 3.158 0 0 1 1.835-.165c.258-.11.367.166.367.427s-.367.688-.367 1.005l-.109.743c-.498.248-.93.614-1.259 1.067a3.52 3.52 0 0 0-.63 1.534c-.775-1.004 0-2.12.421-3.083.109-.261.367-.413.476-.688-.163-.096-.367-.206-.476 0a4.994 4.994 0 0 0-1.196 2.023 2.089 2.089 0 0 0 .462 2.12 1.83 1.83 0 0 0 1.047.578.219.219 0 0 0 .1-.186.223.223 0 0 0-.1-.186c-.259 0-.259-.261-.259-.468.094-.636.43-1.21.938-1.596a4.03 4.03 0 0 1-.312 1.225c.108.83.3 1.646.57 2.436H27.99a12.174 12.174 0 0 0-.326 3.496c-.517.482-1.36.262-1.93.11-.164-.11-.368-.11-.422-.22-.054-.11.421-.358.163-.523a9.272 9.272 0 0 1-2.148.262c-.108 0-.217 0-.217-.097 0-.096.476-.275.217-.537l-.108-.11a4.61 4.61 0 0 1-2.407-.303c-.163-.743 1.36-.165.626-1.018a2.593 2.593 0 0 1-2.257-.358c.109-.206.163-.468.367-.578.204-.11.272 0 .272 0-.109-.578-.843-.262-1.21-.482-.367-.22-.625-.096-.843-.358a4.26 4.26 0 0 1 .476-.536h.476c.163 0 .095-.262 0-.372a4.04 4.04 0 0 1-1.725-.551 4.098 4.098 0 0 1-1.32-1.252c-.03-.284-.03-.57 0-.854.272 0 .421.317.639 0-.109-.371-.476-.412-.64-.633a2.235 2.235 0 0 1-.461-1.541c.258 0 .734.537.774 0a1.718 1.718 0 0 1-.752-.642 1.75 1.75 0 0 1-.28-.955l.108-.537c.258 0 .571.537.734.166a2.31 2.31 0 0 1-.759-1.046 2.34 2.34 0 0 1-.084-1.294c.11-.097.11-.152.218-.097.109.055.367.579.625.579s0-.207 0-.262a2.465 2.465 0 0 1-.367-2.34c.258 0 .258.372.476.592a.164.164 0 0 0 .15.096c.217-.316-.15-.468-.11-.743a1.904 1.904 0 0 1 .327-1.376c.15.316.408.743.775.743.313-.262-.258-.372-.258-.633a1.669 1.669 0 0 1 .108-1.377c.259.097.367.95.626.468a2.24 2.24 0 0 1 .15-1.844.76.76 0 0 1 .828-.275c.53.11.272.908.843.743.163-.207 0-.578 0-.84-.68-1.17-2.256-.371-3.249-.743a4.917 4.917 0 0 1-3.086-2.023 2.454 2.454 0 0 1-.312-2.326 37.403 37.403 0 0 0 5.546 2.12Zm14.195.096c-.095.468-.023.956.203 1.376 1.428 1.542 4.079 1.17 5.03 3.193.163.468.272 1.211-.095 1.583a4.903 4.903 0 0 0-2.568.041 4.95 4.95 0 0 0-2.203 1.336 2.27 2.27 0 0 1 .625-1.762c.639-.647 1.78-.427 2.31-1.28a.724.724 0 0 0-.162-.744 7.954 7.954 0 0 0-3.657-.371c-.476.11-1.101.11-1.36.743 0 .165.096.537-.271.482a2.071 2.071 0 0 1-.802-.406 2.105 2.105 0 0 1-.558-.71 2.326 2.326 0 0 1 .53-2.38 4.507 4.507 0 0 1 2.978-1.101Zm28.86.264c0 .427-.572.634-.939.744-.163-.22.204-.482.204-.689.259-.055.53-.206.735-.055Z"/>
  <path fill="#FAFAFA" d="M12.847 7.623v.11c-.476.11-.625-.317-.843-.592v-.11c.476-.152.585.385.843.592Zm21.316-.48c0 .275.108.592.108.854a1.375 1.375 0 0 1-.57-.744c-.055-.22.366-.22.462-.11Zm28.657.372a3.528 3.528 0 0 1-.519 1.81 3.469 3.469 0 0 1-1.37 1.273 5.787 5.787 0 0 1-.939.372c0-.317.204-.688-.163-.853-.367-.166-.829 0-.829-.372.367-.468 0-1.17.734-1.376a7.017 7.017 0 0 0 2.923-1.377l.163.523ZM13.95 8.631c.258.165.108.647.203 1.019.095.371.272.467.272.633-.31.096-.641.096-.951 0-.15.206-.15.578-.259.84-.57.22-.992-.262-1.577-.524a3.13 3.13 0 0 1-.939-1.146 3.172 3.172 0 0 1-.311-1.455 1.385 1.385 0 0 1 .625-.853A4.994 4.994 0 0 0 13.95 8.63Zm3.56.854c-.403.487-.77 1.002-1.102 1.541-.475 0-.883-.426-1.25-.798-.367-.372-.734-.853-.585-1.376a6.484 6.484 0 0 0 2.937.633Zm41.17-.317a2.31 2.31 0 0 1-1.251 1.211c-.163.11-.53.276-.734 0a1.055 1.055 0 0 1-.422-.73 4.157 4.157 0 0 0 2.407-.481Zm4.6.742c.109.317-.204.579-.354.744a1.516 1.516 0 0 1-1.469.317c.258-.372.83-.689 1.102-1.06h.72Zm-52.271.84c.217.11.258.11.367.275a.955.955 0 0 1-.993-.372.934.934 0 0 1-.367-.634c.57-.165.734.469.993.73Zm48.453-.152a3.527 3.527 0 0 1-1.197 1.75h-.218a2.537 2.537 0 0 0-.68-1.006v-.317a6.45 6.45 0 0 0 1.156-.744c.368 0 .572.317.939.317Z"/>
  <path fill="#FAFAFA" d="M64.378 10.652a4.138 4.138 0 0 1-1.336 2.211 4.05 4.05 0 0 1-2.375.969h-.109c.163-.372.626-.743.476-1.115a13.487 13.487 0 0 0-1.672-.633c-.109-.317.15-.372.258-.592a8.636 8.636 0 0 0 2.407.11 8.53 8.53 0 0 0 2.351-.95Zm-51.003 1.061c.095.152.462.372.462.633a5.113 5.113 0 0 1-1.468.372l-.096.11c.151.56.342 1.107.571 1.638a3.606 3.606 0 0 1-2.068-.418 3.666 3.666 0 0 1-1.493-1.509 2.895 2.895 0 0 1-.204-1.762 6.728 6.728 0 0 0 4.296.936Zm2.669-.111c-.15.537-.368 1.005-.517 1.486a3.103 3.103 0 0 1-1.157-.897 3.155 3.155 0 0 1-.624-1.333l.204-.11c.843-.261 1.36.592 2.094.854ZM35.2 11.16c-.204.372-.68.11-1.047.276-1.835.95-3.29 3.922-5.655 2.642a4.1 4.1 0 0 1-2.04-1.954 1.879 1.879 0 0 1 .205-1.06.54.54 0 0 1 .734 0c.625.743 1.264 1.858 2.365 1.858 1.781-.11 2.868-1.803 4.608-2.078l.83.316Z"/>
  <path fill="#FAFAFA" d="M60.449 12.976a3.253 3.253 0 0 1-1.78 1.707h-.15a5.7 5.7 0 0 0-.163-1.707l.53-.523c.51.208 1.031.382 1.563.523Zm4.298-.523c0 .634-.734.84-1.197 1.006h-.109l.844-1.006h.462Zm-50.539.266c.28.324.6.61.951.853 0 .468-.367.895-.272 1.377l-.095.096c-.734-.317-1.78-1.005-1.835-2.01.367-.11.788-.11 1.25-.316Zm51.493.741c0 1.487-1.359 2.382-2.42 3.125a2.034 2.034 0 0 1-2.188 0c0-.096-.421-.096-.272-.261.272-.482.734-.95.64-1.487-.273-.151-.64-.151-.898-.371s-.258 0-.258 0v-.097a14.48 14.48 0 0 0 5.03-.853l.367-.055Zm-56.315.95c.843.256 1.701.453 2.57.592-.01.643.13 1.28.408 1.858a1.655 1.655 0 0 1-1.985.206 3.865 3.865 0 0 1-1.63-1.242 3.935 3.935 0 0 1-.776-1.91l.095-.11c.474.113.922.319 1.318.606Z"/>
  <path fill="#FAFAFA" d="M60.933 15.208c0 .372-.475.633-.734 1.005a2.532 2.532 0 0 1-1.36.743 3.174 3.174 0 0 0 0-1.748c.477-.206.952-.894 1.36-.371l.734.371Zm-46.36.48a5.685 5.685 0 0 0 0 1.858s0 .262-.15.262a3.414 3.414 0 0 1-1.321-.963 3.472 3.472 0 0 1-.73-1.473c.412-.09.817-.214 1.209-.372l.992.688Zm51.183.43a2.204 2.204 0 0 1-1.006 1.06h-1.36c.844-.317 1.36-1.597 2.366-1.06ZM9.815 17.546a2.23 2.23 0 0 1-1.268-.145c-.4-.17-.744-.455-.988-.818v-.097c1.046-.275 1.522.688 2.256 1.06Zm51.539-.22c0 .481-.625.743-.897 1.06-.41.296-.87.51-1.36.633a3.36 3.36 0 0 0 0-1.473c.53-.22.993-.964 1.632-.592l.625.372ZM14.42 18.388c.095.372.095.798.15 1.115a3.8 3.8 0 0 1-1.663-.501 3.854 3.854 0 0 1-1.274-1.192l1.1-.482c.585.372 1.007.964 1.687 1.06Zm52.189-.95c-.095 1.114-1.196 1.954-2.093 2.49a10.19 10.19 0 0 1-3.14.854v-.11c.203-.262.679-.537.57-1.005-.108-.468-.883-.482-1.196-.908l1.101-1.17c1.585.171 3.186.12 4.758-.151Zm-55.382.522c.205.497.55.923.992 1.224-.217.372-.843 0-.951.482-.11.482.475.95.693 1.377a7.358 7.358 0 0 1-2.99-.689c-.898-.426-2.407-1.28-2.149-2.752 1.43.416 2.928.538 4.405.357Zm30.165 2.177a2.56 2.56 0 0 0 .203 1.652c0 .261.53.371.422.743-.15.151-.517.151-.789.151a2.362 2.362 0 0 1-1.087-1.376c-.109-.688-.53-1.748.204-2.381.29.453.642.86 1.047 1.211Z"/>
  <path fill="#FAFAFA" d="M61.354 19.876c0 .426-.53.537-.897.798a3 3 0 0 1-1.672.372 2.91 2.91 0 0 0-.11-1.377c.394-.097.78-.22 1.156-.371.53-.482 1.101.371 1.523.578Zm-46.828.164a4.83 4.83 0 0 0 .272 1.487 3.838 3.838 0 0 1-2.556-1.115l-.367-.482c.284-.147.58-.271.884-.371a5.09 5.09 0 0 0 1.767.481Z"/>
  <path fill="#005EB8" d="M56.057 20.675c.118.431.083.89-.098 1.297a1.903 1.903 0 0 1-.894.933c.084.528.015 1.07-.2 1.56a2.743 2.743 0 0 1-1.01 1.193l-.993.372c-.17.386-.442.717-.784.96a2.292 2.292 0 0 1-1.16.416 2.15 2.15 0 0 1-1.06.747c-.42.133-.871.132-1.291-.004-.11-.096-.476-.206-.367-.468l.108-.11a2.002 2.002 0 0 0 2.04-.165c.349-.423.583-.93.68-1.473.108 0 .149.097.149.262-.02.229-.02.46 0 .688a1.77 1.77 0 0 0 1.21-.853c.33-.497.461-1.102.367-1.693a.31.31 0 0 1 .204 0c.271.261.163.633.163 1.005a1.55 1.55 0 0 0 .813-.279c.24-.168.43-.4.546-.671a2.082 2.082 0 0 0 .109-1.748c-.109-.22-.367-.262-.367-.482.367-.151.516.743.883.22s.694-.592.694-.963a3.123 3.123 0 0 0-.694-1.377v-.206a1.354 1.354 0 0 1 .952.84Zm-37.615-.428a2.01 2.01 0 0 0-.204 2.023l.313.262c.163-.11.163-.482.42-.482.205.372 0 .854 0 1.377.027.314.131.617.305.88.174.262.41.476.688.62.367.165.367-.207.367-.372s.109-.206.204-.096c.095.11.109.633.163.95.22.5.561.936.993 1.266.217.11.584 0 .476-.262l.108-.578c.095 0 .259.11.259.207a1.5 1.5 0 0 0 .788 1.652 2.34 2.34 0 0 0 1.78.26c.096.11 0 .207.096.262-.46.202-.973.25-1.462.136a2.347 2.347 0 0 1-1.257-.769c0-.426-.53-.165-.843-.426-1.046-.262-.992-1.694-2.093-1.859a3.124 3.124 0 0 1-.77-1.05c-.18-.4-.274-.835-.277-1.276-.421-.22-.788-.482-.843-.853a1.894 1.894 0 0 1 .53-2.01l.259.138Z"/>
  <path fill="#FAFAFA" d="M66.613 20.302a1.54 1.54 0 0 1-.626.688c-.842.537-1.944.207-2.881.165.68-.371 1.522-.537 2.256-1.018.42.03.837.085 1.25.165Zm-27.189.372a3.759 3.759 0 0 0-.734 3.813c-.585.11-1.006-.469-1.36-.95a2.948 2.948 0 0 1 0-2.492.974.974 0 0 1 .313.372c.163.151.422.481.734.371.313-.11 0-.371 0-.633 0-.261.585-.743.843-1.018.121.153.192.34.204.537Zm-30.249.369c.478.076.939.239 1.36.482a3.749 3.749 0 0 1-3.155-.537c-.15-.206-.407-.316-.407-.578.277-.124.584-.162.883-.11l1.319.743Zm57.932.744c0 .743-.897 1.266-1.36 1.693a7.346 7.346 0 0 1-4.241.909 2.332 2.332 0 0 1-1.006-.854 3.58 3.58 0 0 1 .897-.633c.109-.275.476-.372.313-.633-.163-.262-.734-.702-.843-1.074 2.01.671 4.142.874 6.24.592Z"/>
  <path fill="#FAFAFA" d="M12.74 21.415c-.095.261-.463.371-.626.743a3.913 3.913 0 0 0-.476.895c.476.22.952.481 1.36.688-.313.275-.109.853-.68.908-1.89.482-5.437-.743-5.818-2.601.371.068.739.155 1.101.261a6.957 6.957 0 0 0 5.03-1.004s.014 0 .109.11Zm47.926.523c.15.22.422.33.422.592a3.233 3.233 0 0 1-2.57.633 4.626 4.626 0 0 0 0-1.225c-.108-.633.626-.262.939-.413.185-.128.401-.204.625-.22l.584.633Zm-21-.415c.203.744 1.196 1.102 1.1 1.955.145.296.36.552.626.743a1.894 1.894 0 0 0 1.835-.578c.204 0 .367-.11.367.096a1.92 1.92 0 0 1-.244 1.027 1.887 1.887 0 0 1-.748.735 2.162 2.162 0 0 1-2.202-.482 2.89 2.89 0 0 1-.734-1.472.377.377 0 0 0-.245 0c.048.968.395 1.898.992 2.656a1.344 1.344 0 0 1-1.631-.427c-.313-.206-.571-.481-.571-.743.37.046.746.008 1.101-.11 0-.261-.258-.578-.258-.743a2.787 2.787 0 0 1 .611-2.657Z"/>
  <path fill="#FAFAFA" d="M15.158 22.173c.095.372 0 .743.095 1.211-.985.174-2 .01-2.882-.468 0-.591.585-.963.843-1.225a12.1 12.1 0 0 0 1.944.482Zm22.674 3.222c-.109.578.163.95.163 1.377h-.897a5.04 5.04 0 0 1-.258-3.221c.15.73 1.223 1.046.992 1.844Zm22.359-1.115c0 .37.259.687.163 1.059a5.387 5.387 0 0 1-2.569-.743c.134-.32.328-.61.571-.854.639.372 1.727-.688 1.835.537Zm-44.881-.428c.211.291.407.595.585.908-.843.468-1.944.261-2.882.633a1.529 1.529 0 0 1 .68-1.541 15.87 15.87 0 0 0 1.617 0Zm51.177 1.171c-.11.316-.422.481-.789.688-.584.427-1.21.165-1.78 0a5.28 5.28 0 0 1-1.469-.785c.734-.206 1.468-.11 2.148-.371.653.206 1.25.371 1.89.468Zm-55.529.369c-.83.372-1.985 1.06-2.978.482a2.406 2.406 0 0 1-.68-.482c.422-.165.993-.165 1.36-.537.734.276 1.523.276 2.298.537Zm48.043.747a2.015 2.015 0 0 1 .15 1.542c-.367 0-.626-.372-1.101-.372-.626-.372-1.618-.798-1.89-1.748.367-.275.843-.275 1.21-.647.421.482 1.305.317 1.631 1.225Z"/>
  <path fill="#FAFAFA" d="M66.122 26.979c-1.047 1.376-3.1 1.376-4.826 1.28a3.016 3.016 0 0 1-1.563-1.377l-.272-1.06c.421 0 .843.317 1.264 0l.204-.908a14.75 14.75 0 0 0 5.193 2.065ZM17.51 25.712a6.664 6.664 0 0 1-2.936 1.637 1.644 1.644 0 0 1 .38-1.637c.422-.372 1.048-.317 1.523-.689l1.101.579-.067.11Zm-4.866-.002.204.261 1.359-.206a4.153 4.153 0 0 1-1.196 2.752c-.993.854-2.46.372-3.67.11a3.596 3.596 0 0 1-1.32-.608 3.645 3.645 0 0 1-.978-1.084 16.91 16.91 0 0 0 1.726-.166c1.289-.297 2.523-.8 3.657-1.486.218-.055.163.316.218.427Zm44.778 1.696a2.006 2.006 0 0 1-.326 1.542c-.788-.482-1.944-.798-2.31-1.803a3.92 3.92 0 0 0 1.359-.633c.393.343.821.643 1.277.894Zm-38.71-.156a5.58 5.58 0 0 1-2.406 1.804 1.765 1.765 0 0 1 0-1.652c.259-.261.626-.523.993-.84.43.307.908.54 1.413.689Zm-3.092.428a2.34 2.34 0 0 0 .421 1.762h.368a7.292 7.292 0 0 1-1.156 2.065 5.352 5.352 0 0 1-2.427 1.64 5.293 5.293 0 0 1-2.915.108 3.119 3.119 0 0 1-1.618-.95 13.933 13.933 0 0 0 5.859-4.625c.421.372 1.006 0 1.468-.096v.096Zm44.006.467c.108 0 .108-.261.108-.371a14.236 14.236 0 0 0 5.75 3.661c-.094.372-.516.633-.829.853-1.577.895-3.466.262-4.92-.316-1.06-.647-2.312-.909-2.72-2.23v-.262c.368.097.368-.371.572-.536a3.1 3.1 0 0 0 .271-1.225c.599.055 1.142.537 1.768.426Zm-4.19.591a2.398 2.398 0 0 1-.476 1.845 3.2 3.2 0 0 1-1.22-.984 3.256 3.256 0 0 1-.615-1.453h1.577l.734.592Zm-35.038-.106a1.16 1.16 0 0 1-.422.743 16.62 16.62 0 0 0-1.93 1.377 1.797 1.797 0 0 1-.367-1.694c.367-.371.734-.536 1.101-.853.53.177 1.07.32 1.618.427Zm43.244.207c.584.482 1.21.743 1.74 1.225a1.497 1.497 0 0 1-1.468.151c-.64-.468-1.36-.84-1.998-1.266l-.096-.11a11.492 11.492 0 0 1 1.822 0Z"/>
  <path fill="#FAFAFA" d="M56.156 29.316a15.562 15.562 0 0 0 7.735 7.323c.15 0 .367 0 .517.151a2.733 2.733 0 0 1-1.152 1.109 2.69 2.69 0 0 1-1.567.268c-3.508-.372-6.553-3.717-7.966-6.8.033-.283.087-.564.163-.84h.108l.993.744c.734-.275.938-1.115 1.101-1.748v-.165l.068-.042Zm-2.823 1.115-.625 1.487a2.945 2.945 0 0 1-.571-.592 2.754 2.754 0 0 1-.992-1.473v-.165a4.357 4.357 0 0 0 1.875-.372 1.034 1.034 0 0 1 .313 1.115Zm-41.701-.853a7.6 7.6 0 0 1-1.617 1.28 2.902 2.902 0 0 1-2.203-.537v-.11a3.573 3.573 0 0 0 1.632-.84 14.34 14.34 0 0 0 2.188.207Zm10.904.168c-.163.95-1.264 1.486-1.835 2.23a2.257 2.257 0 0 1-.53-2.023l.367-.469c.642.222 1.322.31 1.998.262Zm-4.551 1.484c.259 0 .367-.164.571-.274l.993-.634a5.043 5.043 0 0 1-.735 4.13 9.855 9.855 0 0 1-5.07 3.234c-1.36.261-3.466.523-4.459-.633a14.022 14.022 0 0 0 5.03-3.455 12.172 12.172 0 0 0 2.827-3.867c-.012.304.06.607.209.872.149.266.369.483.634.628Zm32.678-1.117c0 .744 1.21 1.115.626 1.955-.15.275-.258.592-.571.743-.53-.84-1.523-1.376-1.523-2.491a7.7 7.7 0 0 0 1.468-.207Zm-26.287.317c0 1.005-1.046 1.748-1.835 2.491-.258 0-.258-.372-.367-.578-.476-.798.476-1.377.734-1.913a3.52 3.52 0 0 0 1.468 0Zm24.561.799a2.275 2.275 0 0 1-.665.736 2.243 2.243 0 0 1-.913.38 7.31 7.31 0 0 0 0-1.543 9.02 9.02 0 0 0 1.36-.372c0 .151.11.523.218.799Zm-2.717 1.484c.092.236.16.48.205.73a1.178 1.178 0 0 1-1.21.275c.109-1.005.109-2.175.163-3.234 1.523-.166.421 1.582.843 2.23Zm-20.017-1.65c.095.537-.272 1.006-.53 1.488-.477-.207-1.048-.579-1.103-1.006.026-.3.114-.59.259-.854.443.175.904.3 1.374.372Zm20.589-.263c.204.634 0 1.542.367 2.12a2.559 2.559 0 0 1-.163.744c-.2-.639-.324-1.3-.367-1.969l.109-.894h.054Zm-18.804 3.13a1.1 1.1 0 0 1-1.047-.261 22.1 22.1 0 0 0 .463-2.492c0-.22.217-.22.258-.22l.326 2.973Zm-1.209-2.7a5.567 5.567 0 0 1-.476 2.437c-.625-.854.367-1.693.476-2.437Zm23.314 1.487a18.556 18.556 0 0 0 2.72 11.603c.57 1.018 1.359 2.023 1.943 3.138a2.836 2.836 0 0 1-1.28-.15 2.865 2.865 0 0 1-1.085-.703 15.66 15.66 0 0 1-3.98-6.307 15.822 15.822 0 0 1-.629-7.457c.476-.372 1.102-.468 1.469-1.005.305.268.587.563.843.88Z"/>
  <path fill="#FAFAFA" d="m52.863 32.551.462-.482c.284.396.517.826.693 1.28.06.42.179.827.354 1.212v.22a15.478 15.478 0 0 0 5.546 8.258c.304.157.587.35.843.578a6.489 6.489 0 0 1-3.463.109 6.542 6.542 0 0 1-3.035-1.692 12.421 12.421 0 0 1-3.194-5.505 8.088 8.088 0 0 1-.476-3.083.739.739 0 0 0 .734-.262c.264-.385.462-.813.584-1.266.422.151.476.895.952.633Zm-31.226-.578c.036.551.262 1.073.64 1.472l.366-.096a10.704 10.704 0 0 1-.734 5.189 8.783 8.783 0 0 1-2.826 3.445 8.636 8.636 0 0 1-4.134 1.593l-1.142-.207h-.272a16.372 16.372 0 0 0 6.131-7.79c.294-1.024.485-2.076.571-3.138.272-.097.367.275.639.22.176-.305.442-.546.761-.688Z"/>
  <path fill="#FAFAFA" d="M24.635 32.548c.476.482 1.36.482 1.101 1.17.571 3.813.313 8.052-2.352 10.763a16.343 16.343 0 0 1-3.466 2.753 3.75 3.75 0 0 1-1.36.276l.164-.11c3.29-2.864 4.078-6.69 4.662-10.654V32.81c.367-.152.571-.523.83-.744.19.108.338.278.421.482Zm36.825.539c.837.712 1.749 1.33 2.718 1.844-.108.22-.367.22-.57.22a5.472 5.472 0 0 1-2.572-.808 5.557 5.557 0 0 1-1.888-1.945l2.311.689Zm-48.36.632c-.992.84-1.984 2.326-3.56 1.583v-.097a4.536 4.536 0 0 0 1.467-1.17 13.47 13.47 0 0 0 2.094-.316Zm14.893.742c.516 2.546-.734 4.556-1.686 6.676-.204-.152-.095-.523 0-.744a15.24 15.24 0 0 0 .163-5.505 3.27 3.27 0 0 1 .422-.743c.345.171.718.279 1.1.316Zm18.433-.273c.13.4.323.776.57 1.114a17.146 17.146 0 0 0 .626 5.203c0 .372 0 .743-.258 1.005-.367-.151-.571-.633-.83-1.005a13.665 13.665 0 0 1-1.468-6.097v-.11c.456.077.923.04 1.36-.11Zm8.791.649a40.953 40.953 0 0 0 6.702 6.042c.108.152-.204.11-.259.152a5.966 5.966 0 0 1-3.17-.84 6.066 6.066 0 0 1-2.267-2.395 15.762 15.762 0 0 1-1.36-3.124l.354.165Zm-36.613.839a18.037 18.037 0 0 1-2.57 4.57 7.018 7.018 0 0 1-4.553.633c-.109 0-.258 0-.258-.22a10.452 10.452 0 0 0 4.078-2.864 10.57 10.57 0 0 0 3.14-2.12h.163Zm27.189 4.829c.236 1.274.605 2.52 1.101 3.716a.737.737 0 0 1-.272.633.784.784 0 0 1-.938.11c-.788-.371-.367-1.968-1.522-1.376-.258.165-.109.536 0 .743a15.585 15.585 0 0 0 2.569 3.51c.163.468-.313.468-.57.633l-1.265.11c.04.421-.051.844-.258 1.211-.313 0-.476-.261-.734-.206-.368.578-.476 1.693-1.523 1.583-.367-.372 0-.744-.15-1.212-.15-.468-.475-1.28-1.21-1.596a1.348 1.348 0 0 0-.667.19 1.37 1.37 0 0 0-.488.498 4.86 4.86 0 0 0 .53 3.881 1.961 1.961 0 0 0 1.835.523c.259.317.096.854-.108 1.17a1.946 1.946 0 0 1-.614.683 1.916 1.916 0 0 1-.855.322 2.589 2.589 0 0 1-1.353-.473 2.636 2.636 0 0 1-.903-1.123c-.462-.73-.313-1.583-.734-2.327 0 0-.204-.261-.313-.165a2.787 2.787 0 0 0 0 1.115 4.44 4.44 0 0 1 .109 2.34 1.16 1.16 0 0 1-.625.743 1.12 1.12 0 0 1-.606-.222 1.142 1.142 0 0 1-.387-.521c-.14-.78-.09-1.584.15-2.34a2.943 2.943 0 0 0 0-1.005c0-.11-.15-.11-.258-.11-.53.909-.53 3.083-2.203 3.717-.475.165-1.21.371-1.577 0a1.52 1.52 0 0 1-.545-.617 1.544 1.544 0 0 1-.148-.815c.163-.372.422 0 .68-.206 1.468-.537 1.835-2.12 1.944-3.607-.11-.426-.571-1.28-1.21-1.376-.64-.096-1.25.578-1.51 1.376-.217.578 0 1.377-.679 1.212l-.843-.895a3.33 3.33 0 0 0-1.046 0 3.836 3.836 0 0 1 0-1.115c0-.316-.313-.316-.476-.426-.517-.262-1.468.11-1.727-.427-.258-.537.626-.688.898-1.06a9.294 9.294 0 0 0 2.107-3.11c0-.276 0-.593-.163-.648-.938-.316-.626 1.652-1.618 1.652a1.025 1.025 0 0 1-.843-.537c-.204-1.115.625-2.174.843-3.29a4.172 4.172 0 0 1 .408-2.064c.217-.688.367-1.376.584-2.065a25.893 25.893 0 0 0 8.089 12.54 27.578 27.578 0 0 0 7.966-12.884 11.78 11.78 0 0 0 1.128 3.607Zm8.913 3.236c.408.688.992 1.377 1.455 2.12-2.46-1.06-4.976-5.354-5.017-7.213.626 1.859 2.61 3.235 3.562 5.093Z"/>
  <path fill="#FAFAFA" d="M22.123 40.504a37.118 37.118 0 0 1-1.726 3.689 6.211 6.211 0 0 1-3.303 1.376 17.46 17.46 0 0 0 2.569-3.124c.843-.702 1.672-1.377 2.515-2.23l-.055.289Zm-.578 8.706c0 .37-.476.316-.734.577a5.08 5.08 0 0 0-.639.744 2.045 2.045 0 0 0-1.196-.262 1.77 1.77 0 0 0-.897.427 1.67 1.67 0 0 1 .123-.937c.13-.294.343-.542.61-.715a2.142 2.142 0 0 1 2.733.165Zm31.158 1.167a1.262 1.262 0 0 0-.245-.644 1.239 1.239 0 0 0-.544-.416c.218-.481.693-.481 1.047-.743a2.12 2.12 0 0 1 1.264.262 1.473 1.473 0 0 1 .625 1.486c-.367.317-.734-.261-1.155-.165-.422.096-.68.427-.992.22Zm1.671 4.831a.703.703 0 0 1-.578.505.685.685 0 0 1-.686-.34c-.109-.537-.788-.165-.992 0-.585.207-.993-.11-1.468-.11a9.763 9.763 0 0 0 0 1.28c0 .096.15.206.367.096.217-.11.108-.371.15-.633a.725.725 0 0 1 .366.372c.367.371-.829 1.005.218 1.005a1.204 1.204 0 0 0 .258-1.115c.313-.097.585-.097.734.11.571.523-.15 1.005-.367 1.541 0 .262-.843.372-.517.95-.584 0-1.155 0-1.359-.482a6.121 6.121 0 0 0-1.631-2.27c.204-.317 0-.593 0-.854l-.109.11a.333.333 0 0 0-.11-.428.323.323 0 0 0-.148-.054c-.476.166 0 .537-.109.854a.958.958 0 0 1-.15.523c-.217-.152-.217-.523-.475-.633a.269.269 0 0 0-.259.11c.235.512.288 1.09.15 1.638 0 .261-.367.11-.517.11a2.001 2.001 0 0 1-1.046-1.225 2.14 2.14 0 0 1 .275-1.073c.183-.326.45-.598.771-.785.15-.152.626 0 .517-.372v-.096c-.476 0-1.047.468-1.36 0-.733-1.005-1.522-2.024-2.256-3.139.15-.151.109-.523.367-.633.258-.11.625.262.789 0 .163-.261.258-.633.258-1.005.312-.11.68-.11.68.262a1.474 1.474 0 0 1-.11 1.486c-.095.11.11.166.164.166.367 0 .476-.427.68-.647a2.282 2.282 0 0 1-.11 1.858.886.886 0 0 0 .368 0c.258-.262.258-.633.476-.798.475.275.475 1.114.992 1.486.843-.096 1.36-1.376 2.257-.743h.312c.109-.372-.367-.468-.57-.578h-.53c0-.317.366-.537.624-.633.259-.097.843.206 1.102 0-.15-.372-.626-.372-.993-.482 0-.262.476-.372.626-.633.217 0 .475-.207.625 0 .15.206.326.523.476.743.15.22.734.743.367 1.005-.367.261-.734.537-.843 1.005-.367.275-.775 0-1.196.275-.422.275-.898-.22-1.156.151.258.372.788.22 1.101.578.313.358 0 .854.626.854.108 0 0-.207 0-.207.108-.275-.15-.537-.15-.853a3.036 3.036 0 0 1 1.196.11c.163.206.163.743.53.578.15-.206 0-.633-.163-.84-.163-.206-.095 0-.095-.11.22-.12.475-.16.72-.11.64.11.53 1.06 1.06 1.06.205-.206 0-.482 0-.688 0-.207-.312-.262-.312-.427.313-.096.462 0 .68.275.131.219.184.477.15.73-.19.358-.503.523-.667 1.17Zm.273.202c.258-.537.312-.798.57-1.018.259-.22.218-.468.259-.744a1.373 1.373 0 0 1 .951 1.019c.027.402-.05.804-.225 1.166a2.304 2.304 0 0 1-.767.898 1.483 1.483 0 0 1-1.468.11c-.109 0-.272-.22-.109-.316.625-.33.625-.647.789-1.115Zm-26.249-4.72 1.102.207c-.83 1.06-1.618 2.12-2.556 3.125a2.11 2.11 0 0 0-1.264-.097c0 .097 0 .317.163.317.41-.014.816.1 1.161.326.345.227.614.555.77.94.217 1.225-1.36.964-1.673 1.968-.258-.11-.421-.481-.625-.743-.272-.482.57-.853.204-1.376-.476.096-.571.578-.571 1.06v.371a.322.322 0 0 1-.367-.11c-.11-.261-.272-.482-.163-.743.108-.262.53-.578 0-.854-.313.11-.422.482-.422.854 0 .371.109.371.109.633-.68.592-.734 1.376-1.101 1.913a2.288 2.288 0 0 1-2.04 0c-.271-.482-.842-.895-.53-1.486.164-.152.313-.372.626-.372a1.128 1.128 0 0 0 .272.964c.367-.11 0-.482.095-.854a1.177 1.177 0 0 1 .639-.853c0 .481 0 .963.462 1.115.272-.152-.095-.372-.095-.523.095-.372.095-.854.57-1.115.11 0 .164 0 .164-.22v-.262c-.952.11-1.78.853-2.719.372a1.59 1.59 0 0 1-.938.261c-.53-.151-.788-.895-1.577-.84-.258-.165-.15-.536-.258-.908.204-.316.367-.688.734-.84l.843.097c-.109.371-.897.633-.367 1.115h.095a2.072 2.072 0 0 1 1.726-.95c-.095.261-.57.468-.462.84.367.481.462-.207.734-.262a.904.904 0 0 1 .734-.11c-.217.275-.584.482-.367.853.096 0 .15.11.367 0 .259-.688.938-.853 1.564-.95l.271-.11c-.271-.15-.733-.15-.897-.426h-1.06c-.367-.372-.53-1.115-1.155-1.115a1.391 1.391 0 0 1 .163-1.487 1.681 1.681 0 0 1 1.196-.729.85.85 0 0 1 .515.148.866.866 0 0 1 .328.43v.151c0 .152-.258 0-.422.11-.163.11-.367.11-.476.372.272.482.53-.206.898 0 .57 0 .843.537 1.047.909v.096c-.476 0-.843-.206-1.21 0 .108.647.734 0 1.006.372l1.087.798c.53.11.272-.633.639-.798.095-.097.204-.317.258-.372.15.31.386.568.68.743.258-.096-.109-.371-.109-.578a1.393 1.393 0 0 1 .367-1.376c-.095.371.109.578.367.84a.391.391 0 0 0 .218-.097 2.562 2.562 0 0 1-.109-1.542c.163-.316.476-.853.843-.578.367.276.109 1.102.516 1.377ZM17.35 54.023a2.394 2.394 0 0 0 1.468 1.707c.022.434.114.862.272 1.266a2.324 2.324 0 0 1-1.74-.523 2.003 2.003 0 0 1-.463-1.858c.15-.22.15-.482.463-.592Zm18.76 2.131a1.347 1.347 0 0 0 1.468 0 3.62 3.62 0 0 0 .734-1.06c1.36.95 1.197 2.546 2.556 3.44a11.865 11.865 0 0 0 4.296 1.749c.185.19.345.402.475.633a.862.862 0 0 1-.312.592 5.75 5.75 0 0 1 2.148 1.748 5.335 5.335 0 0 1 .625 4.721 3.79 3.79 0 0 1-1.221 1.525 3.725 3.725 0 0 1-1.81.705h-.204c-.204 0-.476 0-.571-.165 0-.689.57-.689 1.1-1.115.326-.278.56-.65.672-1.065a2.145 2.145 0 0 0-.046-1.261 3.955 3.955 0 0 0-.504-1.456A3.906 3.906 0 0 0 44.498 64c0 .537.258 1.266-.367 1.638a.726.726 0 0 1-.734-.151c-.938-1.005-1.102-2.23-2.203-3.235-.883-1.005-2.093-1.693-2.922-2.753-.11 1.693.625 3.07.462 4.611a.653.653 0 0 1-.367.578c-.313-.468-.462-1.541-1.047-1.376-.258.11-.367 1.115-.367 1.638 0 .22 0 .371-.258.371a.432.432 0 0 1-.367-.261l-.259-1.638c0-.22-.258-.22-.367-.11a5.65 5.65 0 0 0-.734 1.376c-.258-.096-.367-.371-.476-.633-.108-1.651.952-2.973.585-4.61-1.047 1.747-3.303 2.23-4.078 4.128-.476.702-.625 1.914-1.577 2.285a.578.578 0 0 1-.442-.033.59.59 0 0 1-.292-.338A1.91 1.91 0 0 1 28.96 64c-.163 0-.422.11-.64.165a3.428 3.428 0 0 0-1.155 1.697 3.47 3.47 0 0 0 .014 2.06c.381.822.933 1.55 1.618 2.134.163.262-.11.413-.367.413a3.051 3.051 0 0 1-1.505-.228 3.089 3.089 0 0 1-1.214-.928 5.015 5.015 0 0 1-.843-4.46 6.335 6.335 0 0 1 2.719-3.124 2.006 2.006 0 0 1 0-1.06c.584-.647 1.577-.371 2.31-.647a4.736 4.736 0 0 0 1.817-.722 4.8 4.8 0 0 0 1.378-1.397 11.89 11.89 0 0 1 1.944-3.125 2.41 2.41 0 0 0 1.074 1.377Zm10.795 1.805a1.393 1.393 0 0 0 .258 1.376c.095 0 .204.11.313.165.108.055-.11.317-.218.317-.72-.22-1.618-.11-2.093-.964a2.405 2.405 0 0 1 0-2.216l.272-.371a2.585 2.585 0 0 0 1.468 1.693Zm-18.655.414a2.466 2.466 0 0 1-.908 1.008c-.389.243-.838.37-1.295.369 0-.372.367-.688.421-1.06.055-.372 0-.798.109-1.17.455-.362.942-.68 1.455-.95a1.97 1.97 0 0 1 .217 1.803Zm25.715.535a2.113 2.113 0 0 1-.843 1.597 2.342 2.342 0 0 1-1.726.357c-.109 0-.218-.15-.109-.261.585 0 .585-.523.734-.895a2.215 2.215 0 0 0 0-.853 4.104 4.104 0 0 0 1.36-1.376c.475.261.475.894.584 1.431Zm-32.421.427c.259.371.096.798.367 1.115.272.316.571.261.463.523a2.338 2.338 0 0 1-1.273-.121 2.368 2.368 0 0 1-1.025-.774 2.391 2.391 0 0 1 0-2.23l.095-.11a4.3 4.3 0 0 0 1.373 1.597Z"/>
  <path fill="#FAFAFA" d="M35.849 64.314c.095.524.095 1.226.625 1.487.53.262.626-.11.83-.482l.271-.894h.096c.145.623.43 1.205.83 1.7.4.497.906.894 1.48 1.162a2.061 2.061 0 0 0 2.257 0 .525.525 0 0 1 .523.312c.03.067.046.139.048.212a2.48 2.48 0 0 1-.302 1.08 2.452 2.452 0 0 1-.745.833 2.69 2.69 0 0 1-3.085-.427.31.31 0 0 1-.272-.151 3.953 3.953 0 0 0 .313 2.382 3.9 3.9 0 0 0 1.63 1.747 1.345 1.345 0 0 0 1.36-.097.215.215 0 0 1 .245.023.22.22 0 0 1 .068.239 1.72 1.72 0 0 1-.334.908 1.688 1.688 0 0 1-.767.579 2.284 2.284 0 0 1-1.238 0 2.305 2.305 0 0 1-1.06-.647c-.109 1.486.258 3.51-.897 4.129-.462.206-.313 1.06-.734 1.376a.395.395 0 0 1-.44.092.395.395 0 0 1-.131-.092c-.517-.261-.258-1.005-.625-1.376-1.36-.909-.993-2.436-1.102-3.978v-.165a2.056 2.056 0 0 1-2.31.482 1.47 1.47 0 0 1-.71-.53 1.499 1.499 0 0 1-.283-.847c0-.261 0-.371.109-.371.409.15.853.169 1.274.056a2.13 2.13 0 0 0 1.078-.69 3.245 3.245 0 0 0 1.038-1.397 3.285 3.285 0 0 0 .172-1.74c-.367 0-.626.481-.993.536a2.473 2.473 0 0 1-2.719-.482 2.116 2.116 0 0 1-.625-1.748c.258-.371.843 0 1.25-.11a4.662 4.662 0 0 0 2.323-1.025 4.75 4.75 0 0 0 1.457-2.1l.095.014Zm8.796-36.966a31.313 31.313 0 0 1-.218 7.694 12.183 12.183 0 0 0-.407 2.12 27.39 27.39 0 0 1-7.314 11.988l-.109-.11a24.525 24.525 0 0 1-6.667-9.452 24.808 24.808 0 0 1-1.625-11.497l.095-.743h16.245Z"/>
  <path fill="#005EB8" d="M34.753 31.061c.095 0 .258 0 .367.165.108.166 0 .317-.218.317 0-.11-.108-.11-.15-.11h-.108c-.109.261-.367-.11-.476.165-.258-.275.109-.427.109-.743 0 0-.109-.166-.204 0-.163.523-.639-.11-.897 0 0 .316.367.206.53.371.095.468-.272 0-.422.207 0 .261.368.261.517.482.109.426-.367-.11-.517 0 .15.371.884.206.789.743 0 .316.204.371.313.578-.218.261 0 .523-.11.743-.203 0-.366-.22-.624-.11v.11c.203.178.465.272.734.262.15.11.15.261.15.481h-.463c.095.207.353.207.57.372.218.165 0 .206.11.316.096.516.219 1.026.367 1.528 0 .11 0 .33.15.33.217-.22 0-.481 0-.688a8.019 8.019 0 0 1-.517-2.023c0-.316-.163-.688-.218-1.005.06-.13.133-.255.218-.371a3.62 3.62 0 0 0 .095-.372.147.147 0 0 0-.095 0c-.11 0-.163.22-.327.165-.163-.055 0-.11 0-.316 0-.207.218-.276.327-.372h.15c.312 0 .312.207.366.372.055.165.218 0 .218 0a8.643 8.643 0 0 0-.218-1.597l-.516-.206h-.218a.193.193 0 0 0 .218.206Zm0 1.005h-.218c-.109.11-.15.22-.258.22 0-.22.15-.372.258-.688.07.025.147.025.218 0a.539.539 0 0 1 .462.317c-.095.261-.313.15-.462.15Zm1.72-2.117c.367.11.462-.207.625-.372.205.11.259.275.572.275 0-.11.163-.11.163-.275h-.163a.417.417 0 0 1-.313-.096c-.259-.11-.517-.11-.517.206-.272.262-.476-.317-.735-.11.105.14.229.266.368.372Zm-1.571.004c.125-.105.23-.231.313-.372-.095 0-.204-.097-.313-.097-.108 0-.258.262-.15.469h.15Zm-.91-.003.408.164v-.165a1.232 1.232 0 0 0-.517-.262c-.109.166-.367.427-.367.634.285.11.394-.262.476-.372Zm4.836.26a.526.526 0 0 0 .476-.261c-.163-.207-.367 0-.53 0-.163 0-.095-.262-.313-.207v.11c0 .097.109.358.367.358Zm-1.16.003c.272.22.326-.097.53-.262.205-.165-.108 0-.204-.096-.095-.097-.326.206-.326.358Zm-.831.107a.098.098 0 0 0 .022.078.095.095 0 0 0 .073.033c.163-.11.272-.22.272-.372-.218-.207-.367.152-.367.262Zm-1.362.264a.533.533 0 0 0 .259-.372c0-.096-.109-.151-.163-.096a2.305 2.305 0 0 0-.313.372c0 .096.081.096.217.096Zm-2.676.108c.109-.482.476.11.626-.11-.096-.262-.368-.262-.626-.469-.109.097-.109.317-.163.469-.055.151.054.11.163.11Zm3.564-.482v.111c0 .11.204.165.367.11.164-.055-.258-.22-.367-.22Zm-1.246.22c-.11-.164-.368 0-.476-.164v.165c.108 0 .258.262.476 0Zm5.022.635c.095-.207-.164-.207-.164-.262 0-.055.367-.11.422-.372a.698.698 0 0 0-.735.262c0 .165-.163.482 0 .634.164.151.313-.152.477-.262Zm-1.464-.371c0 .537-.109 1.005-.109 1.598.259.261.368-.317.626-.317h-.204c-.258-.372.258-.372.367-.689h-.367c-.258-.427.367-.427.476-.744-.272-.22-.53.152-.789.152Zm-1.739.108c-.095 0 0 .262.164.262.163 0 .204-.262.258-.482.054-.22-.258.11-.422.22Zm-4.868.427c.109-.276.367-.166.571-.276.204-.11-.354-.151-.571-.262a.707.707 0 0 0-.109.538h.109Zm4.037.687c.11.262.571.262.571.634-.108.165-.312-.207-.462 0 .15.165.462.536.626.481-.11-.853.258-1.858-.53-2.34-.205.262.162.372.258.482 0 .427-.259-.11-.462 0 .108.317.366.372.462.578.095.207-.259-.055-.462.165Zm-.532-.688c0 .096.163 0 .272-.166.11-.165 0-.261-.108-.261-.11 0-.259.262-.164.427Zm2.095.098v.11a.911.911 0 0 0 .585-.579c-.19-.275-.313.317-.585.469Zm3.725-.098c0 .096.108.207 0 .317-.11.11.204.151.204 0 0-.152.163-.372 0-.537-.163-.166-.313-.11-.517-.11-.204 0-.163-.152-.272-.097-.109.055.109.207.109.372s.421-.11.476.055Zm-4.401.472c.313-.096.476-.262.476-.523v-.11c-.367 0-.367.371-.53.537l.054.096Zm-4.363-.373a.338.338 0 0 0-.204-.097c0 .207-.258.372-.109.579.313 0 .231-.262.313-.482Zm-.562.217a.531.531 0 0 0-.626-.22.709.709 0 0 0 .626.275v-.055Zm8.28-.107c0 .11 0 .372.259.262.258-.11.163 0 0-.097-.163-.096-.163-.372-.313-.372l.054.207Zm1.987.633c0-.152.272-.372.272-.524h-.11c-.258.372-.367-.22-.625-.11v.165a.958.958 0 0 0 .463.468Zm-6.756-.099.272.097c0-.152.15-.262.15-.468 0-.207 0 0-.15 0s-.367.206-.272.371Zm2.992 1.119c-.109-.428-.476.095-.626 0-.108-.373.259-.373.368-.593.108-.22-.313 0-.368-.096-.108-.372.259-.428.368-.648.108-.22-.313-.096-.368.11-.476-.11-.639.262-.952.538 0 .096 0 .096.109.206l.571-.372c.028.247.028.497 0 .744 0 .427-.367 0-.571.11-.204.11.258.152.367.317.367.041.735-.22 1.102-.317Zm-7.127-1.02c.109 0 .109-.152.204-.262.095-.11-.463-.206-.367.11-.204.056-.014.152.163.152Zm8.429 1.487a4.946 4.946 0 0 0-.448 1.597.122.122 0 0 0 .204 0l.611-1.969a.4.4 0 0 1 .207-.25.39.39 0 0 1 .324-.011c.095.11.258.165.258.372 0 .206 0 .426.313.371.312-.055.42-.11.625-.316.204-.207-.204 0-.313-.166.109-.096.367 0 .476-.15-.476-.221.109-.483-.163-.69-.095 0-.204 0-.204.097-.163.592-.258-.151-.53-.096 0 .096.108.206.108.317 0 .11 0 .426-.108.426-.109 0-.367-.426-.734-.537-.095-.481.476-.11.639-.371.163-.262-.272-.11-.476-.207-.204-.096-.313 0-.517-.165-.53-.11.204.372 0 .537h-.108c-.164 0-.259-.165-.368 0-.108.165.476.427.204.743v-.11c-.204-.11-.258-.206-.462-.11.195.198.352.432.462.688Zm-6.703-.264c-.204-.262.258-.482.163-.854-.272-.096-.163.275-.422.275a.36.36 0 0 0-.109-.275l.164-.468c-.272-.372-.164.316-.422.206.15.634.367 1.17.517 1.75.109.11.218.11.272 0 .054-.11.204-.58.095-.84-.15 0-.15.206-.258.206Zm-1.099-.745c.11-.206.259-.371 0-.482-.108.11-.258.276-.15.482.11.207.15.11.15 0Zm10.428.166c.204 0 .476-.276.476-.427a1.234 1.234 0 0 0-.368-.22c.096.275-.367.371-.108.647Zm-11.422.208c-.109-.482.367-.11.571-.261.204-.152-.462-.22-.775-.317a1.728 1.728 0 0 0 0 .578l.15.11a.11.11 0 0 0 .054-.11Zm.572.633c0 .262.422.166.53.262.11.096.11.372.368.276.03-.22.08-.437.15-.648 0-.358-.408.22-.408-.261 0-.152.353-.469 0-.524-.218.262-.367.427-.218.785-.109.22-.258 0-.422.11Zm10.68-.204c0 .097 0 .207.163.207.193-.139.355-.317.476-.523a.299.299 0 0 0-.272-.11c0 .11-.367.261-.367.426Z"/>
  <path fill="#005EB8" d="M41.874 33.927c-.11-.262-.476-.11-.734-.11-.259 0-.164-.633-.64-.633-.094.371.53.633.273 1.004-.164-.096-.272-.261-.422-.261 0 .261.258.371.258.633l-1.359 2.078v.152c.052.06.125.1.204.11.414-.803.867-1.584 1.36-2.34.253.025.51-.028.733-.151-.095-.317-.367.151-.57-.11-.204-.262.625-.207.897-.372Zm-3.416 2.49c.217-.895.475-1.858.734-2.863a.39.39 0 0 0-.421-.262c0 .262.271.523 0 .799h-.313a.32.32 0 0 0 .036.229.31.31 0 0 0 .181.142l-.476 1.858c0 .097.204.207.259.097Zm-1.985-2.972c.095.22.258.22.367.275.258.84 0 1.955.367 2.753.095.11.15.11.15 0 .008-.967-.115-1.93-.368-2.863-.15-.055-.285-.316-.516-.165Z"/>
  <path fill="#005EB8" d="M41.869 34.669c-.897 1.376-1.632 2.753-2.57 4.13-.108 0-.108-.111-.163-.111a9.504 9.504 0 0 1 1.006-1.707c.204-.73.83-1.266 1.088-1.9l-.095-.11c-.109 0-.109 0-.163.11-.83 1.17-1.469 2.492-2.298 3.717-.108 0-.217 0-.217-.11 0-.482.312-.743.367-1.225a8.871 8.871 0 0 0 .367-1.638c-.361.9-.674 1.819-.938 2.753-.109.11-.204.11-.258 0 0-1.487.149-3.07.149-4.611.109-.22.367-.22.476-.372-.258-.22-.476 0-.734 0-.109 1.583-.163 3.18-.259 4.666a2.698 2.698 0 0 0-.734-.22l-.625-4.5c-.109-.22-.272-.482-.584-.482 0 .261.217.261.367.481.15.22.217.744 0 1.005-.218.262-.422-.261-.626-.482a.905.905 0 0 0-.625-.261c.095.261.367.261.517.482.264 1.361.424 2.742.475 4.129a1.656 1.656 0 0 1-.476 0c-.149-.372-.367-.785-.516-1.266-.476-.634-.476-1.597-.843-2.23-.109-.207-.204-.372-.367-.372-.109.482.367.853.476 1.28.335.828.612 1.679.83 2.546l-.096.152c-.326 0-.585.11-.68-.152a18.158 18.158 0 0 0-1.89-2.973l-.475-.316c-.367 0 0-.372-.15-.647a1.45 1.45 0 0 1-.271-.151c-.096-.11 0-.22.163-.22l-.367-.372c-.11-.152.204-.097.204-.262-.309-.202-.567-.202-.775 0 0 .165.312.262.312.482l-.108.151c-.11.276.258.276.366.482-.108.11-.203.11-.258.165 0 .317.462.372.626.468l.475.11a14.4 14.4 0 0 1 1.781 3.084c0 .261-.163.523-.163.894 0 .372 0 .743.367.909l-.625 2.587c0 .317.367.22.625.317v-.097c-.109-.11-.204-.22-.258-.22a12.24 12.24 0 0 1 .516-2.491c.11-.096.11 0 .218 0a3.33 3.33 0 0 1-.313.963s0 .372.204.262c.113-.488.306-.954.571-1.377a.39.39 0 0 1 .421.097l-.258 1.115c0 .11.204.22.258.22.115-.473.274-.934.476-1.377.367-.15.571.482.938.634A30.555 30.555 0 0 0 36.363 44c0 .261.367.261.53.206.163-.055-.272-.206-.272-.316l.272-2.602.096-.151c.367 0 .639-.22.897-.372-.109-.22-.367-.481-.163-.688.203-.206.326 0 .421.096a8.35 8.35 0 0 1 .367 2.079c.109 0 .218.151.367.151l-.367-2.23v-.096c.109 0 .218 0 .218.096.257.906.466 1.825.625 2.753 0 0-.258.166-.109.372.15.206.313-.096.422-.206.163-1.005-.571-1.859-.68-2.863l.109-.11c.095 0 .258-.097.367 0 .204.743.462 1.486.625 2.23 0 .206-.367.206-.163.37.204.166.367-.11.53-.11-.163-.784-.53-1.527-.734-2.38.367-.262.313-.95.313-1.377-.11-.11-.313-.165-.313-.261.83-1.377 1.563-2.602 2.297-3.827l.843-.578-.109-.165c-.367.386-.611.537-.883.647Z"/>
  <path fill="#005EB8" d="M34.848 33.557c.163.11.421.482.639.165a.79.79 0 0 0-.64-.276v.11Zm7.388.48c-.109 0 0 0 0 .151.258-.096.626-.151.734-.468a.721.721 0 0 1-.272-.165c0 .371-.367.261-.462.482Zm-9.176 1.117c-.096-.22-.15-.593-.422-.69-.313.318-.572 0-.83 0l-.109.097c.236.116.482.208.735.276.367-.276.19.468.626.316Zm.217.786c.218.65.481 1.286.788 1.899.096 0 .204.11.204 0a12.96 12.96 0 0 0-.938-2.12 1.163 1.163 0 0 0-.788-.371c0 .44.517.179.734.592Zm1.981 8.172a.962.962 0 0 0 .734.207c0-.097-.258-.097-.367-.262l.367-1.954c.109-.33.217-.592 0-.744-.258.895-.421 1.845-.734 2.753Zm2.408-2.602c-.096-.11-.096.11-.096.22.15.634 0 1.529.096 2.327a.176.176 0 0 0 .163.165c.136-.81.136-1.64 0-2.45-.11-.041 0-.261-.163-.261Zm1.004 2.124a1.53 1.53 0 0 1-.217-1.005c0-.152 0-.482-.367-.523v.151c.201.541.239 1.13.109 1.694.109.165.258.11.367.11 0-.317.367-.206.476-.427-.109-.151-.272 0-.367 0Zm-4.288-1.489c-.25.5-.41 1.04-.476 1.597h.367a3.062 3.062 0 0 1 .259-1.377c-.109-.11-.109-.22-.15-.22Z"/>
  <path fill="#005EB8" d="M37.36 44.195v-1.708s-.15-.151-.259-.151c-.109.523.109 1.377-.109 1.956.207.115.448.154.68.11.164-.207-.313.027-.313-.207Zm-2.352-1.375h-.109c-.123.4-.21.81-.258 1.226.108 0 .258 0 .367-.11-.163-.303.204-.73 0-1.116Z"/>
  <path fill="#FAFAFA" d="M37.572 38.965c-.217.536-.584 1.28-.217 1.913a.445.445 0 0 1-.517 0c-.476-.482-.992-1.005-.734-1.748a.584.584 0 0 1 .387-.564.565.565 0 0 1 .238-.028c.204.151.626 0 .843.427Zm-1.939.165c-.15.262.368 1.005-.367.895a3.4 3.4 0 0 1-1.251-.151c0-.317-.218-.648 0-.91.625.056 1.197-.096 1.618.166Zm3.872.094c0 .276.108.537-.096.703-.562.029-1.124.029-1.686 0 .217-.317 0-.744.367-.854.476.151 1.102-.207 1.415.151Zm-3.441-4.181.395 3.193a.728.728 0 0 0-.395.11c-.108-1.17-.163-2.354-.38-3.537.217 0 .272 0 .38.234Z"/>
</svg>
